<?xml version="1.0" encoding="UTF-8"?>
<svg xmlns="http://www.w3.org/2000/svg" xmlns:xlink="http://www.w3.org/1999/xlink" width="104pt" height="104pt" viewBox="0 0 104 104" version="1.1">
<g id="surface1">
<path style=" stroke:none;fill-rule:nonzero;fill:rgb(0%,0%,0%);fill-opacity:1;" d="M 93.261719 67.964844 C 93.429688 67.851562 93.589844 67.71875 93.742188 67.570312 C 93.902344 67.410156 94.148438 67.183594 94.433594 66.921875 C 96.75 64.773438 101.070312 60.777344 101.167969 56.449219 C 101.203125 54.726562 100.542969 53.125 99.253906 51.820312 C 95.222656 47.746094 85.441406 46.667969 80.835938 46.667969 C 79.636719 46.667969 78.667969 46.730469 77.882812 46.824219 C 78.292969 43.886719 77.957031 40.148438 77.796875 38.683594 C 77.398438 35.089844 76.257812 28.582031 73.113281 25.402344 C 71.84375 24.121094 70.277344 23.441406 68.578125 23.441406 C 64.222656 23.441406 60.152344 27.75 57.964844 30.066406 C 57.699219 30.347656 57.46875 30.589844 57.308594 30.746094 C 57.164062 30.890625 57.039062 31.039062 56.925781 31.191406 L 51.964844 26.171875 C 51.140625 25.332031 50.03125 24.871094 48.847656 24.871094 C 47.683594 24.871094 46.589844 25.320312 45.765625 26.136719 L 39.914062 31.925781 C 38.195312 33.625 38.179688 36.410156 39.878906 38.128906 L 50.324219 48.699219 L 7.21875 48.699219 C 4.800781 48.699219 2.832031 50.667969 2.832031 53.085938 L 2.832031 99.613281 C 2.832031 102.03125 4.800781 104 7.21875 104 L 72.398438 104 C 74.816406 104 76.785156 102.03125 76.785156 99.613281 L 76.785156 75.480469 L 86.234375 85.042969 C 87.0625 85.882812 88.167969 86.34375 89.351562 86.34375 C 90.515625 86.34375 91.609375 85.894531 92.433594 85.078125 L 98.285156 79.289062 C 100.003906 77.589844 100.019531 74.804688 98.320312 73.085938 Z M 96.582031 54.464844 C 97.160156 55.050781 97.425781 55.65625 97.410156 56.367188 C 97.347656 59.101562 93.515625 62.648438 91.878906 64.164062 C 91.628906 64.394531 91.40625 64.601562 91.21875 64.78125 C 90.964844 64.714844 90.285156 64.433594 88.871094 63.234375 C 87.492188 62.070312 79.882812 54.378906 78.730469 52.988281 C 77.707031 51.753906 77.363281 51.074219 77.25 50.75 C 77.757812 50.613281 78.875 50.425781 80.835938 50.425781 C 86.613281 50.429688 94.082031 51.9375 96.582031 54.464844 Z M 60.695312 32.648438 C 62.234375 31.015625 65.84375 27.199219 68.578125 27.199219 C 69.277344 27.199219 69.871094 27.46875 70.441406 28.046875 C 72.054688 29.675781 73.382812 33.605469 73.996094 38.550781 C 74.558594 43.09375 74.277344 46.328125 73.957031 47.417969 C 73.636719 47.300781 72.960938 46.953125 71.726562 45.914062 C 70.351562 44.746094 62.742188 37.058594 61.589844 35.667969 C 60.40625 34.238281 60.132812 33.554688 60.070312 33.300781 C 60.25 33.117188 60.460938 32.894531 60.695312 32.648438 Z M 42.558594 34.597656 L 48.410156 28.808594 C 48.566406 28.652344 48.75 28.628906 48.847656 28.628906 C 48.949219 28.628906 49.136719 28.652344 49.292969 28.8125 L 71.148438 50.933594 L 64.40625 57.605469 L 42.550781 35.484375 C 42.3125 35.242188 42.316406 34.835938 42.558594 34.597656 Z M 37.574219 100.242188 L 7.21875 100.242188 C 6.878906 100.242188 6.589844 99.953125 6.589844 99.613281 L 6.589844 79.023438 L 37.574219 79.023438 Z M 37.574219 75.265625 L 6.589844 75.265625 L 6.589844 53.085938 C 6.589844 52.746094 6.878906 52.457031 7.21875 52.457031 L 37.574219 52.457031 Z M 73.027344 99.613281 C 73.027344 99.953125 72.738281 100.242188 72.398438 100.242188 L 41.332031 100.242188 L 41.332031 79.023438 L 73.027344 79.023438 Z M 73.027344 75.265625 L 41.332031 75.265625 L 41.332031 52.457031 L 54.039062 52.457031 L 73.027344 71.675781 Z M 95.640625 76.617188 L 89.789062 82.40625 C 89.632812 82.5625 89.449219 82.585938 89.351562 82.585938 C 89.253906 82.585938 89.0625 82.5625 88.90625 82.402344 L 67.050781 60.28125 L 73.792969 53.609375 L 95.648438 75.730469 C 95.886719 75.972656 95.882812 76.378906 95.640625 76.617188 Z M 95.640625 76.617188 "/>
<path style=" stroke:none;fill-rule:nonzero;fill:rgb(0%,0%,0%);fill-opacity:1;" d="M 8.796875 38.902344 C 11.222656 40.304688 18.484375 42.164062 21.539062 42.164062 C 21.539062 42.164062 21.539062 42.164062 21.542969 42.164062 C 22.273438 42.164062 22.796875 42.066406 23.242188 41.84375 C 23.71875 41.601562 24.835938 41.042969 27.128906 35.824219 C 28.148438 33.503906 29.316406 30.367188 29.535156 28.523438 C 29.695312 27.183594 29.761719 25.148438 28.511719 22.953125 C 27.101562 20.476562 24.46875 18.9375 21.644531 18.9375 C 20.464844 18.9375 19.335938 19.203125 18.285156 19.730469 C 16.089844 20.828125 15.113281 22.984375 14.605469 24.523438 C 13.75 24.226562 12.667969 23.945312 11.472656 23.945312 C 10.40625 23.945312 9.40625 24.171875 8.5 24.625 C 4.839844 26.457031 3.277344 30.902344 4.949219 34.746094 C 5.960938 37.0625 7.628906 38.230469 8.796875 38.902344 Z M 10.183594 27.988281 C 10.566406 27.796875 10.988281 27.703125 11.472656 27.703125 C 12.5 27.703125 13.550781 28.128906 14.246094 28.414062 C 14.804688 28.640625 15.210938 28.804688 15.707031 28.804688 C 16.027344 28.804688 16.328125 28.734375 16.605469 28.597656 C 17.457031 28.167969 17.6875 27.371094 17.925781 26.523438 C 18.226562 25.472656 18.730469 23.710938 19.96875 23.089844 C 20.492188 22.828125 21.054688 22.695312 21.644531 22.695312 C 23.101562 22.695312 24.511719 23.527344 25.246094 24.8125 C 25.800781 25.789062 25.960938 26.738281 25.800781 28.082031 C 25.527344 30.414062 22.726562 36.894531 21.542969 38.40625 C 19.148438 38.40625 12.550781 36.730469 10.679688 35.648438 C 9.523438 34.980469 8.839844 34.261719 8.398438 33.246094 C 7.535156 31.269531 8.339844 28.910156 10.183594 27.988281 Z M 10.183594 27.988281 "/>
<path style=" stroke:none;fill-rule:nonzero;fill:rgb(0%,0%,0%);fill-opacity:1;" d="M 32.914062 17.574219 C 35.945312 22.425781 37.113281 22.816406 37.613281 22.980469 C 37.898438 23.078125 38.214844 23.125 38.570312 23.125 C 41.28125 23.125 49.132812 19.863281 51.476562 18.011719 C 52.539062 17.175781 54.023438 15.785156 54.695312 13.351562 C 55.800781 9.3125 53.628906 5.132812 49.742188 3.839844 C 49.121094 3.632812 48.464844 3.527344 47.792969 3.527344 C 46.203125 3.527344 44.796875 4.09375 43.75 4.625 C 43.039062 3.152344 41.773438 1.1875 39.363281 0.382812 C 38.597656 0.128906 37.800781 0 36.996094 0 C 33.8125 0 30.878906 2.019531 29.695312 5.027344 C 28.769531 7.378906 29.125 9.386719 29.476562 10.6875 C 29.949219 12.464844 31.5625 15.410156 32.914062 17.574219 Z M 33.195312 6.402344 C 33.816406 4.820312 35.34375 3.757812 36.996094 3.757812 C 37.398438 3.757812 37.792969 3.824219 38.175781 3.949219 C 39.609375 4.429688 40.324219 6.117188 40.746094 7.125 C 41.058594 7.859375 41.378906 8.617188 42.285156 8.921875 C 42.488281 8.988281 42.703125 9.023438 42.917969 9.023438 C 42.917969 9.023438 42.921875 9.023438 42.921875 9.023438 C 43.550781 9.023438 44.027344 8.757812 44.683594 8.390625 C 45.476562 7.953125 46.671875 7.289062 47.792969 7.289062 C 48.066406 7.289062 48.316406 7.328125 48.554688 7.40625 C 50.511719 8.058594 51.640625 10.277344 51.070312 12.355469 C 50.773438 13.4375 50.214844 14.222656 49.152344 15.0625 C 47.308594 16.515625 40.761719 19.105469 38.824219 19.347656 C 37.429688 18.011719 33.710938 11.972656 33.105469 9.71875 C 32.761719 8.429688 32.789062 7.4375 33.195312 6.402344 Z M 33.195312 6.402344 "/>
</g>
</svg>
