<?xml version="1.0" encoding="iso-8859-1"?>
<!-- Generator: Adobe Illustrator 17.1.0, SVG Export Plug-In . SVG Version: 6.00 Build 0)  -->
<!DOCTYPE svg PUBLIC "-//W3C//DTD SVG 1.1//EN" "http://www.w3.org/Graphics/SVG/1.1/DTD/svg11.dtd">
<svg version="1.1" id="Capa_1" xmlns="http://www.w3.org/2000/svg" xmlns:xlink="http://www.w3.org/1999/xlink" x="0px" y="0px"
	 viewBox="0 0 415.05 415.05" style="enable-background:new 0 0 415.05 415.05;" xml:space="preserve">
<g>
	<path d="M372.194,271.245c0.673-0.464,1.316-0.987,1.918-1.582c0.646-0.639,1.622-1.542,2.752-2.588
		c9.26-8.569,26.497-24.52,26.877-41.788c0.152-6.886-2.487-13.274-7.632-18.473c-16.093-16.265-55.121-20.563-73.508-20.563
		c-4.781,0-8.64,0.238-11.778,0.618c1.627-11.725,0.294-26.644-0.353-32.482c-1.591-14.352-6.134-40.323-18.686-53.008
		c-5.067-5.121-11.324-7.828-18.093-7.828c-17.382,0-33.636,17.197-42.368,26.436c-1.058,1.119-1.972,2.086-2.617,2.724
		c-0.573,0.567-1.066,1.161-1.519,1.769l-19.795-20.035c-3.304-3.344-7.724-5.186-12.444-5.186c-4.645,0-9.014,1.792-12.303,5.047
		l-23.354,23.108c-6.857,6.785-6.92,17.887-0.141,24.75l41.685,42.19H28.803c-9.649,0-17.5,7.851-17.5,17.5V397.55
		c0,9.649,7.851,17.5,17.5,17.5h260.136c9.649,0,17.5-7.851,17.5-17.5v-96.313l37.705,38.162c3.305,3.345,7.724,5.187,12.444,5.187
		c4.645,0,9.014-1.792,12.303-5.046l23.355-23.109c6.857-6.785,6.92-17.888,0.14-24.749L372.194,271.245z M385.447,217.364
		c2.313,2.337,3.361,4.75,3.298,7.593c-0.24,10.909-15.537,25.063-22.069,31.108c-1.002,0.927-1.893,1.751-2.634,2.466
		c-1.01-0.264-3.728-1.389-9.376-6.166c-5.5-4.651-35.867-35.341-40.46-40.891c-4.082-4.931-5.453-7.639-5.912-8.936
		c2.032-0.554,6.489-1.289,14.308-1.289C345.657,201.251,375.468,207.278,385.447,217.364z M242.225,130.29
		c6.148-6.505,20.547-21.739,31.467-21.739c2.789,0,5.149,1.074,7.43,3.379c6.437,6.505,11.739,22.179,14.183,41.927
		c2.243,18.123,1.123,31.036-0.154,35.386c-1.283-0.465-3.979-1.857-8.893-6.013c-5.5-4.651-35.867-35.341-40.46-40.891
		c-4.717-5.699-5.813-8.429-6.066-9.441C240.453,132.164,241.287,131.282,242.225,130.29z M169.842,138.076l23.354-23.109
		c0.624-0.617,1.366-0.709,1.752-0.709c0.394,0,1.147,0.094,1.774,0.729l87.228,88.287l-26.909,26.626l-87.221-88.279
		C168.868,140.654,168.876,139.031,169.842,138.076z M149.958,400.05H28.803c-1.355,0-2.5-1.145-2.5-2.5v-82.179h123.656V400.05z
		 M149.958,300.372H26.303v-88.518c0-1.355,1.145-2.5,2.5-2.5h121.156V300.372z M291.438,397.55c0,1.355-1.145,2.5-2.5,2.5h-123.98
		v-84.679h126.48V397.55z M291.438,300.372h-126.48v-91.018h50.698l75.782,76.701V300.372z M381.694,305.768l-23.355,23.109
		c-0.624,0.617-1.365,0.709-1.752,0.709c-0.394,0-1.146-0.095-1.774-0.729l-87.229-88.287l26.909-26.626l87.221,88.28
		C382.669,303.189,382.66,304.813,381.694,305.768z"/>
	<path d="M35.106,155.26c9.675,5.594,38.669,13.013,50.86,13.014c0.001,0,0.001,0,0.002,0c2.919,0,5.015-0.397,6.795-1.289
		c1.903-0.952,6.358-3.181,15.509-24.01c4.069-9.264,8.728-21.782,9.598-29.135c0.633-5.35,0.898-13.476-4.084-22.233
		c-5.627-9.885-16.127-16.026-27.403-16.026c-4.707,0-9.218,1.063-13.408,3.16c-8.764,4.385-12.656,12.986-14.686,19.135
		c-3.418-1.188-7.74-2.321-12.505-2.321c-4.254,0-8.244,0.917-11.859,2.726c-14.615,7.313-20.839,25.05-14.169,40.38
		C23.783,147.914,30.446,152.566,35.106,155.26z M40.637,111.696c1.534-0.767,3.217-1.14,5.146-1.14
		c4.101,0,8.296,1.706,11.072,2.835c2.235,0.909,3.851,1.566,5.831,1.566c0.001,0,0.002,0,0.002,0c1.268,0,2.471-0.281,3.576-0.834
		c3.41-1.706,4.319-4.892,5.281-8.265c1.199-4.201,3.205-11.232,8.142-13.703c2.087-1.044,4.34-1.574,6.696-1.574
		c5.807,0,11.446,3.315,14.367,8.445c2.216,3.895,2.86,7.676,2.224,13.051c-1.1,9.299-12.279,35.162-17.002,41.196
		c-0.002,0-0.002,0-0.004,0c-9.551,0-35.886-6.682-43.353-11c-4.615-2.667-7.338-5.539-9.105-9.599
		C30.078,124.791,33.276,115.379,40.637,111.696z"/>
	<path d="M131.355,70.13c12.093,19.369,16.762,20.923,18.755,21.586c1.144,0.381,2.393,0.566,3.821,0.566c0,0,0,0,0.001,0
		c10.82,0,42.145-13.009,51.51-20.393c4.231-3.335,10.165-8.893,12.833-18.609c4.426-16.121-4.254-32.792-19.76-37.956
		c-2.475-0.824-5.091-1.242-7.778-1.242c-6.344,0-11.951,2.263-16.138,4.383c-2.842-5.878-7.887-13.731-17.513-16.937
		C154.036,0.515,150.862,0,147.652,0c-12.705,0-24.414,8.063-29.138,20.064c-3.694,9.39-2.273,17.391-0.882,22.593
		C119.526,49.741,125.963,61.494,131.355,70.13z M132.473,25.557C134.958,19.242,141.058,15,147.652,15
		c1.597,0,3.176,0.256,4.696,0.762c5.732,1.909,8.573,8.644,10.27,12.667c1.237,2.932,2.516,5.964,6.135,7.17
		c0.813,0.271,1.665,0.408,2.533,0.408c0.001,0,0.002,0,0.004,0c2.516-0.001,4.414-1.057,7.041-2.518
		c3.155-1.754,7.924-4.405,12.407-4.405c1.088,0,2.083,0.155,3.04,0.473c7.809,2.601,12.311,11.461,10.034,19.752
		c-1.187,4.321-3.404,7.45-7.655,10.801c-7.353,5.797-33.484,16.139-41.215,17.1c-5.559-5.323-20.412-29.427-22.818-38.428
		C130.747,33.634,130.851,29.678,132.473,25.557z"/>
</g>
<g>
</g>
<g>
</g>
<g>
</g>
<g>
</g>
<g>
</g>
<g>
</g>
<g>
</g>
<g>
</g>
<g>
</g>
<g>
</g>
<g>
</g>
<g>
</g>
<g>
</g>
<g>
</g>
<g>
</g>
</svg>
